<svg width="14" height="14" viewBox="0 0 14 14" fill="none" xmlns="http://www.w3.org/2000/svg">
<path d="M10.4532 14C9.87695 14.0002 9.31061 13.8501 8.81033 13.5646L8.73977 13.5249C5.48709 11.6677 2.76583 9.00898 0.83599 5.80277L0.468099 5.19075C0.0913001 4.56505 -0.064838 3.83146 0.0245675 3.1069C0.113973 2.38233 0.443777 1.70849 0.96142 1.19275L1.6944 0.461114C2.31035 -0.153705 3.31212 -0.153705 3.92751 0.461114L5.54242 2.07306C5.78546 2.3168 5.9423 2.63295 5.98918 2.97364C6.03606 3.31433 5.97044 3.66099 5.80224 3.96111L5.19525 5.03705C5.18249 5.05968 5.1775 5.08587 5.18104 5.1116C5.18458 5.13733 5.19645 5.1612 5.21485 5.17957L8.81033 8.76844C8.82902 8.78672 8.85316 8.79846 8.87911 8.80189C8.90506 8.80531 8.93142 8.80024 8.95424 8.78744L10.0305 8.18213L10.031 8.18157C10.3318 8.01386 10.679 7.94846 11.0203 7.99525C11.3616 8.04204 11.6783 8.19848 11.9226 8.44091L13.538 10.054C14.154 10.6688 14.154 11.6687 13.538 12.283L12.7726 13.0465C12.4677 13.3497 12.106 13.5901 11.708 13.7537C11.31 13.9173 10.8836 14.001 10.4532 14ZM2.81096 1.11785C2.69336 1.11785 2.57577 1.16257 2.48618 1.252L1.7532 1.98307C1.4125 2.32253 1.19543 2.76604 1.13658 3.24293C1.07772 3.71982 1.18046 4.20265 1.42842 4.6145L1.79631 5.22652C3.62689 8.26805 6.20816 10.7903 9.29357 12.5524L9.36412 12.5921C10.2186 13.08 11.2937 12.9419 11.9802 12.2556L12.7457 11.4921C12.7884 11.4495 12.8222 11.399 12.8453 11.3434C12.8684 11.2877 12.8803 11.2281 12.8803 11.1679C12.8803 11.1077 12.8684 11.0481 12.8453 10.9925C12.8222 10.9368 12.7884 10.8863 12.7457 10.8437L11.1302 9.23067C11.0591 9.16013 10.9669 9.11465 10.8676 9.10113C10.7683 9.08762 10.6672 9.1068 10.5798 9.15578L9.50355 9.76109C9.26757 9.89297 8.99496 9.9445 8.72701 9.90789C8.45906 9.87128 8.21035 9.74852 8.01855 9.5582L4.42307 5.96934C4.2322 5.77812 4.10907 5.52995 4.07238 5.26252C4.0357 4.99509 4.08746 4.72301 4.21981 4.48762L4.8268 3.41225C4.87557 3.32496 4.89457 3.22421 4.88093 3.1252C4.86729 3.02619 4.82176 2.93429 4.7512 2.86338L3.13573 1.252C3.09311 1.20939 3.04248 1.17561 2.98675 1.15259C2.93101 1.12957 2.87127 1.11777 2.81096 1.11785Z" fill="white" fillOpacity="0.3"/>
</svg>
