<svg width="12" height="15" viewBox="0 0 12 15" fill="none" xmlns="http://www.w3.org/2000/svg">
<path d="M10.3559 5.1838L10.1222 12.2586C10.1022 12.8645 9.847 13.4388 9.4106 13.8596C8.97419 14.2804 8.39098 14.5146 7.78475 14.5124H3.34367C2.73782 14.5146 2.15495 14.2807 1.71861 13.8604C1.28227 13.4401 1.02676 12.8664 1.00626 12.2609L0.772514 5.1838C0.7674 5.02882 0.824061 4.87815 0.930032 4.76495C1.036 4.65175 1.1826 4.58528 1.33758 4.58016C1.49256 4.57505 1.64323 4.63171 1.75643 4.73768C1.86964 4.84365 1.93611 4.99025 1.94122 5.14523L2.17496 12.2217C2.1866 12.5238 2.31485 12.8097 2.53278 13.0192C2.7507 13.2287 3.04135 13.3457 3.34367 13.3455H7.78475C8.08746 13.3457 8.37844 13.2284 8.59642 13.0184C8.81441 12.8083 8.9424 12.5219 8.95345 12.2194L9.18719 5.14523C9.19231 4.99025 9.25878 4.84365 9.37198 4.73768C9.48519 4.63171 9.63585 4.57505 9.79083 4.58016C9.94581 4.58528 10.0924 4.65175 10.1984 4.76495C10.3044 4.87815 10.361 5.02882 10.3559 5.1838ZM11.129 2.82944C11.129 2.98442 11.0674 3.13305 10.9578 3.24264C10.8483 3.35223 10.6996 3.41379 10.5446 3.41379H0.584353C0.429373 3.41379 0.28074 3.35223 0.171153 3.24264C0.0615654 3.13305 0 2.98442 0 2.82944C0 2.67446 0.0615654 2.52583 0.171153 2.41624C0.28074 2.30665 0.429373 2.24509 0.584353 2.24509H2.39585C2.581 2.24559 2.75971 2.17718 2.89721 2.05319C3.03471 1.92919 3.12115 1.75847 3.13973 1.57425C3.18285 1.14211 3.38531 0.741509 3.70766 0.450488C4.03001 0.159466 4.44915 -0.00112389 4.88344 5.92118e-06H6.24498C6.67926 -0.00112389 7.09841 0.159466 7.42076 0.450488C7.74311 0.741509 7.94556 1.14211 7.98869 1.57425C8.00726 1.75847 8.09371 1.92919 8.2312 2.05319C8.3687 2.17718 8.54742 2.24559 8.73257 2.24509H10.5441C10.699 2.24509 10.8477 2.30665 10.9573 2.41624C11.0668 2.52583 11.1284 2.67446 11.1284 2.82944H11.129ZM4.15416 2.24509H6.97542C6.89863 2.06963 6.84841 1.88372 6.82641 1.69346C6.81193 1.54942 6.74451 1.41588 6.63719 1.31872C6.52988 1.22156 6.39033 1.16769 6.24556 1.16754H4.88402C4.73926 1.16769 4.5997 1.22156 4.49239 1.31872C4.38508 1.41588 4.31765 1.54942 4.30317 1.69346C4.28099 1.88375 4.23115 2.06966 4.15416 2.24509ZM4.74261 11.0986V6.12285C4.74261 5.96787 4.68104 5.81924 4.57145 5.70965C4.46187 5.60007 4.31323 5.5385 4.15825 5.5385C4.00327 5.5385 3.85464 5.60007 3.74505 5.70965C3.63547 5.81924 3.5739 5.96787 3.5739 6.12285V11.101C3.5739 11.2559 3.63547 11.4046 3.74505 11.5142C3.85464 11.6237 4.00327 11.6853 4.15825 11.6853C4.31323 11.6853 4.46187 11.6237 4.57145 11.5142C4.68104 11.4046 4.74261 11.2559 4.74261 11.101V11.0986ZM7.55568 11.0986V6.12285C7.55568 5.96787 7.49412 5.81924 7.38453 5.70965C7.27494 5.60007 7.12631 5.5385 6.97133 5.5385C6.81635 5.5385 6.66772 5.60007 6.55813 5.70965C6.44854 5.81924 6.38698 5.96787 6.38698 6.12285V11.101C6.38698 11.2559 6.44854 11.4046 6.55813 11.5142C6.66772 11.6237 6.81635 11.6853 6.97133 11.6853C7.12631 11.6853 7.27494 11.6237 7.38453 11.5142C7.49412 11.4046 7.55568 11.2559 7.55568 11.101V11.0986Z" fill="white"/>
</svg>
