<svg width="25" height="24" viewBox="0 0 25 24" fill="none" xmlns="http://www.w3.org/2000/svg">
<rect width="24.7605" height="23.3295" rx="2.48738" fill="#19B159"/>
<g clip-path="url(#clip0_436_4347)">
<path d="M8.8599 13.7613H10.9917C11.0579 13.7616 11.1234 13.749 11.1847 13.7239C11.246 13.6989 11.3017 13.662 11.3487 13.6154L14.8279 10.1312L16.2558 8.73346C16.3029 8.68672 16.3403 8.63111 16.3658 8.56984C16.3914 8.50857 16.4045 8.44286 16.4045 8.37649C16.4045 8.31011 16.3914 8.2444 16.3658 8.18313C16.3403 8.12186 16.3029 8.06625 16.2558 8.01951L14.124 5.86259C14.0773 5.81546 14.0217 5.77806 13.9604 5.75253C13.8991 5.72701 13.8334 5.71387 13.767 5.71387C13.7007 5.71387 13.6349 5.72701 13.5737 5.75253C13.5124 5.77806 13.4568 5.81546 13.4101 5.86259L11.9922 7.28545L8.50293 10.7697C8.45633 10.8167 8.41946 10.8724 8.39444 10.9337C8.36942 10.9949 8.35674 11.0605 8.35712 11.1267V13.2585C8.35712 13.3918 8.41009 13.5197 8.50438 13.614C8.59867 13.7083 8.72655 13.7613 8.8599 13.7613ZM13.767 6.92848L15.1899 8.35135L14.4759 9.06529L13.0531 7.64243L13.767 6.92848ZM9.36268 11.3328L12.3442 8.35135L13.767 9.77421L10.7855 12.7557H9.36268V11.3328ZM16.9044 14.7668H7.85434C7.721 14.7668 7.59311 14.8198 7.49882 14.9141C7.40453 15.0084 7.35156 15.1362 7.35156 15.2696C7.35156 15.4029 7.40453 15.5308 7.49882 15.6251C7.59311 15.7194 7.721 15.7724 7.85434 15.7724H16.9044C17.0377 15.7724 17.1656 15.7194 17.2599 15.6251C17.3542 15.5308 17.4071 15.4029 17.4071 15.2696C17.4071 15.1362 17.3542 15.0084 17.2599 14.9141C17.1656 14.8198 17.0377 14.7668 16.9044 14.7668Z" fill="black"/>
</g>
<defs>
<clipPath id="clip0_436_4347">
<rect width="10.0399" height="10.5112" fill="white" transform="translate(7.35938 5.48877)"/>
</clipPath>
</defs>
</svg>
