<svg width="12" height="12" viewBox="0 0 12 12" fill="none" xmlns="http://www.w3.org/2000/svg">
<path d="M1.88059 3.98358H2.02669C2.58917 3.98358 3.04938 4.44379 3.04938 5.00627V10.1197C3.04938 10.6822 2.58917 11.1424 2.02669 11.1424H1.88059C1.31812 11.1424 0.85791 10.6822 0.85791 10.1197V5.00627C0.85791 4.44379 1.31812 3.98358 1.88059 3.98358V3.98358ZM5.97133 0.915527C6.53381 0.915527 6.99402 1.37574 6.99402 1.93821V10.1197C6.99402 10.6822 6.53381 11.1424 5.97133 11.1424C5.40886 11.1424 4.94865 10.6822 4.94865 10.1197V1.93821C4.94865 1.37574 5.40886 0.915527 5.97133 0.915527ZM10.0621 6.75944C10.6245 6.75944 11.0848 7.21965 11.0848 7.78212V10.1197C11.0848 10.6822 10.6245 11.1424 10.0621 11.1424C9.49959 11.1424 9.03939 10.6822 9.03939 10.1197V7.78212C9.03939 7.21965 9.49959 6.75944 10.0621 6.75944V6.75944Z" fill="white"/>
</svg>
