<svg width="30" height="30" viewBox="0 0 30 30" fill="none" xmlns="http://www.w3.org/2000/svg">
<g clip-path="url(#clip0_7268_48720)">
<path d="M21.7422 26.4257H4.75C4.42639 26.4257 4.16406 26.1633 4.16406 25.8398V0.644444C4.16406 0.32083 4.42639 0.058506 4.75 0.058506H17.6406C17.796 0.058506 17.945 0.120264 18.0549 0.230127L22.1565 4.33169C22.2664 4.44155 22.3281 4.59062 22.3281 4.74601V11.7773C22.3281 12.1009 22.0657 12.3632 21.7422 12.3632C21.4186 12.3632 21.1562 12.1009 21.1562 11.7773V4.9887L17.3979 1.23038H5.33594V25.2538H21.1562V22.3241C21.1562 22.0006 21.4186 21.7382 21.7422 21.7382C22.0657 21.7382 22.3281 22.0006 22.3281 22.3241V25.8398C22.3281 26.1633 22.0657 26.4257 21.7422 26.4257Z" fill="white"/>
<path d="M17.6406 29.9413H1.23438C0.910762 29.9413 0.648438 29.6789 0.648438 29.3554V5.33194C0.648438 5.00833 0.910762 4.74601 1.23438 4.74601H4.75C5.07361 4.74601 5.33594 5.00833 5.33594 5.33194C5.33594 5.65556 5.07361 5.91788 4.75 5.91788H1.82031V28.7694H17.0547V25.8398C17.0547 25.5162 17.3171 25.2538 17.6406 25.2538C17.9642 25.2538 18.2266 25.5162 18.2266 25.8398V29.3554C18.2266 29.6789 17.9642 29.9413 17.6406 29.9413ZM21.7422 5.33194H17.6406C17.3171 5.33194 17.0547 5.06962 17.0547 4.74601V0.644444C17.0547 0.32083 17.3171 0.058506 17.6406 0.058506C17.9642 0.058506 18.2266 0.32083 18.2266 0.644444V4.16007H21.7422C22.0657 4.16007 22.3281 4.42239 22.3281 4.74601C22.3281 5.06962 22.0657 5.33194 21.7422 5.33194Z" fill="white"/>
<path d="M28.7734 22.9101H10.6094C10.2858 22.9101 10.0234 22.6477 10.0234 22.3241V11.7773C10.0234 11.4536 10.2858 11.1913 10.6094 11.1913H28.7734C29.097 11.1913 29.3594 11.4536 29.3594 11.7773V22.3241C29.3594 22.6477 29.097 22.9101 28.7734 22.9101ZM11.1953 21.7382H28.1875V12.3632H11.1953V21.7382Z" fill="white"/>
<path d="M12.9531 20.5663C12.6295 20.5663 12.3672 20.3039 12.3672 19.9804V14.121C12.3672 13.7974 12.6295 13.5351 12.9531 13.5351H14.418C15.5488 13.5351 16.4688 14.455 16.4688 15.5859C16.4688 16.7167 15.5488 17.6366 14.418 17.6366H13.5391V19.9804C13.5391 20.3039 13.2767 20.5663 12.9531 20.5663ZM13.5391 16.4648H14.418C14.9026 16.4648 15.2969 16.0705 15.2969 15.5859C15.2969 15.1012 14.9026 14.7069 14.418 14.7069H13.5391V16.4648ZM19.2227 20.5663H18.2266C17.903 20.5663 17.6406 20.3039 17.6406 19.9804V14.121C17.6406 13.7974 17.903 13.5351 18.2266 13.5351H19.2227C20.9351 13.5351 22.3281 14.9282 22.3281 16.6405V17.4609C22.3281 19.1733 20.9351 20.5663 19.2227 20.5663ZM18.8125 19.3944H19.2227C20.2888 19.3944 21.1563 18.527 21.1563 17.4609V16.6405C21.1563 15.5744 20.2888 14.7069 19.2227 14.7069H18.8125V19.3944ZM24.0859 20.5663C23.7624 20.5663 23.5 20.3039 23.5 19.9804V14.121C23.5 13.7974 23.7624 13.5351 24.0859 13.5351H26.4297C26.7532 13.5351 27.0156 13.7974 27.0156 14.121C27.0156 14.4446 26.7532 14.7069 26.4297 14.7069H24.6719V19.9804C24.6719 20.3039 24.4095 20.5663 24.0859 20.5663Z" fill="white"/>
<path d="M25.8438 17.6366H24.0859C23.7624 17.6366 23.5 17.3742 23.5 17.0507C23.5 16.7271 23.7624 16.4648 24.0859 16.4648H25.8438C26.1673 16.4648 26.4297 16.7271 26.4297 17.0507C26.4297 17.3742 26.1673 17.6366 25.8438 17.6366ZM19.3984 10.0194H7.09375C6.77014 10.0194 6.50781 9.75712 6.50781 9.43351C6.50781 9.10989 6.77014 8.84757 7.09375 8.84757H19.3984C19.722 8.84757 19.9844 9.10989 19.9844 9.43351C19.9844 9.75712 19.722 10.0194 19.3984 10.0194ZM19.3984 7.67569H7.09375C6.77014 7.67569 6.50781 7.41337 6.50781 7.08976C6.50781 6.76614 6.77014 6.50382 7.09375 6.50382H19.3984C19.722 6.50382 19.9844 6.76614 19.9844 7.08976C19.9844 7.41337 19.722 7.67569 19.3984 7.67569ZM12.9531 5.33194H7.09375C6.77014 5.33194 6.50781 5.06962 6.50781 4.74601C6.50781 4.42239 6.77014 4.16007 7.09375 4.16007H12.9531C13.2767 4.16007 13.5391 4.42239 13.5391 4.74601C13.5391 5.06962 13.2767 5.33194 12.9531 5.33194Z" fill="white"/>
</g>
<defs>
<clipPath id="clip0_7268_48720">
<rect width="30" height="30" fill="white"/>
</clipPath>
</defs>
</svg>
