<svg width="25" height="23" viewBox="0 0 25 23" fill="none" xmlns="http://www.w3.org/2000/svg">
<rect width="24.6785" height="23" rx="2.48738" fill="#EFAA20"/>
<g clipPath="url(#clip0_436_4326)">
<g clipPath="url(#clip1_436_4326)">
<path d="M16.2993 8.03857H8.3847C8.17741 8.03857 8.00781 8.20817 8.00781 8.41546V14.2572C8.00781 14.4644 8.17741 14.634 8.3847 14.634H16.2993C16.5065 14.634 16.6761 14.4644 16.6761 14.2572V8.41546C16.6761 8.20817 16.5065 8.03857 16.2993 8.03857ZM15.9224 8.79234V11.9487L15.2911 11.4211C15.1498 11.308 14.9519 11.308 14.8106 11.4211L13.793 12.2691L11.428 10.2151C11.2867 10.0926 11.0888 10.0926 10.9475 10.2057L8.76158 11.9676V8.79234H15.9224ZM8.76158 13.8803V12.9381L11.1736 10.9877L13.5386 13.0417C13.6799 13.1642 13.8872 13.1642 14.0285 13.0511L15.0461 12.2031L15.9224 12.9381V13.8803H8.76158ZM12.9167 10.0737C12.9167 9.69686 13.2277 9.38593 13.614 9.38593C14.0003 9.38593 14.3112 9.69686 14.3112 10.0737C14.3112 10.4506 14.0003 10.7616 13.614 10.7616C13.2277 10.7616 12.9167 10.4506 12.9167 10.0737Z" fill="black"/>
</g>
</g>
<defs>
<clipPath id="clip0_436_4326">
<rect width="9.95782" height="10.1817" fill="white" transform="matrix(1 0 0 -1 7.36133 15.6709)"/>
</clipPath>
<clipPath id="clip1_436_4326">
<rect width="8.66832" height="8.66832" fill="white" transform="translate(8.00781 7.00244)"/>
</clipPath>
</defs>
</svg>
