<svg width="14" height="14" viewBox="0 0 14 14" fill="none" xmlns="http://www.w3.org/2000/svg">
<path d="M12.753 1.7H8.76768V0.4C8.76768 0.18 8.58834 0 8.36915 0H4.78237C4.56318 0 4.38384 0.18 4.38384 0.4V1.7H0.398531C0.179339 1.7 0 1.88 0 2.1C0 2.32 0.179339 2.5 0.398531 2.5H1.71368V13.6C1.71368 13.82 1.89302 14 2.11221 14H11.0393C11.2585 14 11.4378 13.82 11.4378 13.6V2.5H12.753C12.9722 2.5 13.1515 2.32 13.1515 2.1C13.1515 1.88 12.9722 1.7 12.753 1.7ZM5.1809 0.8H7.97061V1.6H5.1809V0.8ZM10.6408 13.2H2.51074V2.5H10.6408V13.2ZM8.76768 4.66V11.06C8.76768 11.28 8.58834 11.46 8.36915 11.46C8.14995 11.46 7.97061 11.28 7.97061 11.06V4.66C7.97061 4.44 8.14995 4.26 8.36915 4.26C8.58834 4.26 8.76768 4.42 8.76768 4.66ZM5.1809 4.66V11.06C5.1809 11.28 5.00156 11.46 4.78237 11.46C4.56318 11.46 4.38384 11.28 4.38384 11.06V4.66C4.38384 4.44 4.56318 4.26 4.78237 4.26C5.00156 4.26 5.1809 4.42 5.1809 4.66Z" fill="black"/>
</svg>
