<svg width="13" height="13" viewBox="0 0 13 13" fill="none" xmlns="http://www.w3.org/2000/svg">
<path d="M10.0208 13.0026H0V1.08594H7.85416C7.92599 1.08594 7.99488 1.11447 8.04567 1.16526C8.09646 1.21605 8.12499 1.28494 8.12499 1.35677C8.12499 1.4286 8.09646 1.49749 8.04567 1.54828C7.99488 1.59907 7.92599 1.6276 7.85416 1.6276H0.541666V12.4609H9.47916V6.5026C9.47916 6.43077 9.50769 6.36188 9.55848 6.31109C9.60927 6.2603 9.67816 6.23177 9.74999 6.23177C9.82182 6.23177 9.89071 6.2603 9.9415 6.31109C9.99229 6.36188 10.0208 6.43077 10.0208 6.5026V13.0026Z" fill="black"/>
<path d="M5.85717 7.41081C5.81097 7.41087 5.76553 7.39913 5.72516 7.37668C5.68479 7.35423 5.65083 7.32183 5.62651 7.28256C5.60219 7.24328 5.58832 7.19844 5.58622 7.15229C5.58412 7.10615 5.59385 7.06023 5.6145 7.01891L6.38042 5.48681C6.39341 5.4607 6.41061 5.43691 6.43133 5.41639L11.6023 0.245646C11.763 0.0847708 11.9588 0 12.1681 0C12.4966 0 12.8057 0.212333 12.9365 0.528125C13.0613 0.829833 12.9923 1.15375 12.7515 1.39452L7.58075 6.56527C7.56009 6.58582 7.53633 6.603 7.51033 6.61618L5.97823 7.38237C5.94064 7.40114 5.89918 7.41088 5.85717 7.41081ZM6.84571 5.7682L6.46275 6.53439L7.22894 6.15116L12.3685 1.01156C12.4538 0.926249 12.4766 0.833353 12.4362 0.735312C12.3902 0.625083 12.2751 0.541666 12.1681 0.541666C12.1045 0.541666 12.043 0.570916 11.9853 0.628604L6.84571 5.7682Z" fill="black"/>
<path d="M11.7947 2.24157C11.7254 2.24157 11.656 2.21503 11.6029 2.16222L10.837 1.39603C10.7863 1.34516 10.7578 1.27625 10.7578 1.20442C10.7578 1.13258 10.7863 1.06367 10.837 1.0128C10.8879 0.962078 10.9568 0.933594 11.0286 0.933594C11.1005 0.933594 11.1694 0.962078 11.2202 1.0128L11.9862 1.77899C12.0239 1.81695 12.0495 1.86521 12.0598 1.9177C12.0702 1.97018 12.0648 2.02456 12.0443 2.07399C12.0239 2.12342 11.9893 2.1657 11.9448 2.19552C11.9004 2.22533 11.8482 2.24136 11.7947 2.24157Z" fill="black"/>
</svg>
