<svg width="13" height="11" viewBox="0 0 13 11" fill="none" xmlns="http://www.w3.org/2000/svg">
<g clip-path="url(#clip0_5236_57004)">
<g clip-path="url(#clip1_5236_57004)">
<path d="M11.5704 1.29688H1.32387C1.05551 1.29688 0.835938 1.51644 0.835938 1.7848V9.34771C0.835938 9.61607 1.05551 9.83564 1.32387 9.83564H11.5704C11.8387 9.83564 12.0583 9.61607 12.0583 9.34771V1.7848C12.0583 1.51644 11.8387 1.29688 11.5704 1.29688ZM11.0825 2.27273V6.35914L10.2652 5.67604C10.0822 5.52966 9.82604 5.52966 9.64306 5.67604L8.32565 6.77388L5.2639 4.11467C5.08092 3.95609 4.82476 3.95609 4.64179 4.10247L1.8118 6.38354V2.27273H11.0825ZM1.8118 8.85978V7.63996L4.93454 5.11492L7.9963 7.77414C8.17928 7.93272 8.44764 7.93272 8.63061 7.78634L9.94802 6.6885L11.0825 7.63996V8.85978H1.8118ZM7.19122 3.93169C7.19122 3.44376 7.59376 3.04122 8.09389 3.04122C8.59402 3.04122 8.99656 3.44376 8.99656 3.93169C8.99656 4.41962 8.59402 4.82217 8.09389 4.82217C7.59376 4.82217 7.19122 4.41962 7.19122 3.93169Z" fill="black"/>
</g>
</g>
<defs>
<clipPath id="clip0_5236_57004">
<rect width="13" height="11" fill="white" transform="matrix(1 0 0 -1 0 11)"/>
</clipPath>
<clipPath id="clip1_5236_57004">
<rect width="11.2224" height="11.2224" fill="white" transform="translate(0.835938 -0.0429688)"/>
</clipPath>
</defs>
</svg>
